<svg width="188" height="62" viewBox="0 0 188 62" fill="none" xmlns="http://www.w3.org/2000/svg">
<path d="M50.5889 27.2491C51.9438 27.2491 52.9581 28.0686 53.5279 29.3671H56.6805C55.9107 26.3329 53.6461 24.5281 50.5889 24.5281C46.9335 24.5281 44.1768 27.3178 44.1768 31.017C44.1768 34.7162 46.9335 37.5057 50.5889 37.5057C53.6461 37.5057 55.9107 35.7011 56.6805 32.6668H53.5279C52.9581 33.9654 51.9438 34.7845 50.5889 34.7845C48.6672 34.7845 47.3252 33.1565 47.3252 31.017C47.3252 28.8773 48.6672 27.2491 50.5889 27.2491Z" fill="#1E1E1E"/>
<path d="M115.658 24.8081H111.978L107.548 30.261V24.8081H104.424V37.2259H107.548V31.8607L112.496 37.2259H116.48L110.59 30.9211L115.658 24.8081Z" fill="#1E1E1E"/>
<path d="M67.8595 31.0192C67.8595 33.1441 66.5817 34.7871 64.6451 34.7871C62.7089 34.7871 61.3567 33.1441 61.3567 31.0192C61.3567 31.0185 61.3567 31.0177 61.3567 31.017C61.3567 31.0162 61.3567 31.0155 61.3567 31.0148C61.3567 28.8899 62.7089 27.2469 64.6451 27.2469C66.5817 27.2469 67.8595 28.8899 67.8595 31.0148C67.8595 31.0155 67.8594 31.0162 67.8594 31.017C67.8594 31.0177 67.8595 31.0185 67.8595 31.0192ZM67.6593 26.2484C67.6593 26.2484 67.5134 26.0717 67.3938 25.9254C66.7892 25.1864 65.6308 24.5259 63.9218 24.5259C60.7716 24.5259 58.2083 27.4369 58.2083 31.0148C58.2083 31.0155 58.2084 31.0162 58.2084 31.017C58.2084 31.0177 58.2083 31.0185 58.2083 31.0192C58.2083 34.597 60.7716 37.5081 63.9218 37.5081C65.6308 37.5079 66.7892 36.8477 67.3938 36.1085C67.5134 35.9622 67.6593 35.7855 67.6593 35.7855L67.6745 37.2282H70.783V31.017V24.8056H67.6745L67.6593 26.2484Z" fill="#1E1E1E"/>
<path d="M80.4019 30.2606L76.2411 24.8078H73.5657V37.2255H76.6893V29.5973L80.4268 34.4677L84.1397 29.5946V37.2255H87.2633V24.8078H84.5879L80.4019 30.2606Z" fill="#1E1E1E"/>
<path d="M95.8534 34.7844C93.9623 34.7844 92.5898 33.0636 92.5898 31.017C92.5898 28.9703 93.9623 27.2491 95.8534 27.2491C97.7 27.2491 99.0922 29.0035 99.0922 31.017C99.0922 33.0636 97.7301 34.7844 95.8534 34.7844ZM95.8534 24.5282C92.3174 24.5282 89.4409 27.4392 89.4409 31.017C89.4409 34.6554 92.2576 37.5058 95.8534 37.5058C99.4493 37.5058 102.266 34.6554 102.266 31.017C102.266 27.4392 99.3893 24.5282 95.8534 24.5282Z" fill="#1E1E1E"/>
<path d="M167.023 27.0446C168.575 27.0446 169.724 27.9906 170.132 29.5864H163.741C164.128 28.0132 165.369 27.0446 167.023 27.0446ZM167.096 24.5271C163.325 24.5271 160.692 27.1889 160.692 31C160.692 34.7506 163.375 37.4728 167.071 37.4728C169.99 37.4728 172.387 35.8377 173.176 33.3071L173.232 33.128H170.154L170.116 33.2063C169.613 34.2558 168.566 34.8336 167.169 34.8336C165.24 34.8336 163.776 33.5648 163.634 31.7959H173.32L173.329 31.6667C173.464 29.576 172.863 27.7044 171.637 26.3973C170.506 25.1913 168.893 24.5271 167.096 24.5271Z" fill="#1E1E1E"/>
<path d="M126.075 31.0192C126.075 33.144 124.798 34.7871 122.861 34.7871C120.925 34.7871 119.573 33.144 119.573 31.0192C119.573 31.0185 119.573 31.0177 119.573 31.017C119.573 31.0161 119.573 31.0155 119.573 31.0148C119.573 28.8899 120.925 27.2469 122.861 27.2469C124.798 27.2469 126.075 28.8899 126.075 31.0148C126.075 31.0155 126.075 31.0161 126.075 31.017C126.075 31.0177 126.075 31.0185 126.075 31.0192ZM128.999 24.8056H125.89L125.875 26.2484C125.875 26.2484 125.729 26.0716 125.61 25.9254C125.005 25.1863 123.847 24.5259 122.138 24.5259C118.987 24.5259 116.424 27.4369 116.424 31.0148C116.424 31.0155 116.424 31.0161 116.424 31.017C116.424 31.0177 116.424 31.0185 116.424 31.0192C116.424 34.5969 118.987 37.5079 122.138 37.5079C123.847 37.5079 125.005 36.8476 125.61 36.1084C125.729 35.9622 125.875 35.7854 125.875 35.7854L125.89 37.2282H128.999V31.017V24.8056Z" fill="#1E1E1E"/>
<path d="M159.555 24.8081H149.08V27.481H152.756V37.2259H155.879V27.481H159.555V24.8081Z" fill="#1E1E1E"/>
<path d="M182.159 31.0217L186.844 24.7707H183.281L180.278 28.7719L177.275 24.7707H173.736L178.421 31.0217L173.457 37.2292H177.077L180.302 33.1947L183.527 37.2292H187.123L182.159 31.0217Z" fill="#1E1E1E"/>
<path d="M145.315 32.9622C144.086 32.9622 143.067 34.0074 143.067 35.2352C143.067 36.4892 144.086 37.508 145.315 37.508C146.57 37.508 147.59 36.4892 147.59 35.2352C147.59 34.0074 146.57 32.9622 145.315 32.9622Z" fill="#1E1E1E"/>
<path d="M131.123 27.481H134.799V37.2259H137.923V27.481H141.599V24.8081H131.123V27.481Z" fill="#1E1E1E"/>
<path d="M24.8262 29.3509H0V32.6403H24.8262V29.3509Z" fill="#1E1E1E"/>
<path d="M29.3684 24.8109H32.6598V9.53674e-06H29.3684V24.8109Z" fill="#1E1E1E"/>
<path d="M29.3684 62H32.6598V37.1892H29.3684V62Z" fill="#1E1E1E"/>
</svg>
